<?xml version="1.0" encoding="UTF-8" standalone="no"?>
<!-- Created with Inkscape (http://www.inkscape.org/) -->

<svg
   width="75.069321mm"
   height="78.016426mm"
   viewBox="0 0 75.069321 78.016426"
   version="1.1"
   id="svg1"
   xml:space="preserve"
   xmlns:inkscape="http://www.inkscape.org/namespaces/inkscape"
   xmlns:sodipodi="http://sodipodi.sourceforge.net/DTD/sodipodi-0.dtd"
   xmlns="http://www.w3.org/2000/svg"
   xmlns:svg="http://www.w3.org/2000/svg"><sodipodi:namedview
     id="namedview1"
     pagecolor="#ffffff"
     bordercolor="#000000"
     borderopacity="0.25"
     inkscape:showpageshadow="2"
     inkscape:pageopacity="0.0"
     inkscape:pagecheckerboard="0"
     inkscape:deskcolor="#d1d1d1"
     inkscape:document-units="mm"><inkscape:page
       x="0"
       y="0"
       width="75.069321"
       height="78.016426"
       id="page2"
       margin="0"
       bleed="0" /></sodipodi:namedview><defs
     id="defs1" /><g
     inkscape:groupmode="layer"
     id="layer2"
     inkscape:label="Layer 2"
     transform="translate(-319.69619,-150.13567)"><path
       style="fill:#ffffff;fill-opacity:1;stroke:none;stroke-width:0.3;stroke-miterlimit:0"
       d="m 322.01129,206.82265 14.08907,-7.14375 27.80636,-28.14184 12.14572,0.49288 9.87237,4.77238 -4.58713,5.79363 -10.20485,2.25763 -0.28684,10.46985 -15.03418,18.31224 -7.14375,11.77396 -18.71927,-7.34219 z"
       id="path10"
       sodipodi:nodetypes="cccccccccccc"
       inkscape:export-filename="fox.png"
       inkscape:export-xdpi="96"
       inkscape:export-ydpi="96" /><path
       id="path8"
       style="fill:#ff8618;fill-opacity:1;stroke:none;stroke-width:0.3;stroke-miterlimit:0"
       d="m 354.97466,164.84331 c -15.90041,9.18011 -16.71098,19.61382 -18.32395,32.44866 0.76184,0.22091 14.78728,0.86224 17.26759,1.56819 3.41325,0.97148 5.97928,2.16517 13.1133,6.0507 7.32832,3.99135 13.30473,5.51052 18.54636,5.55137 -1.67761,0.34359 -1.38381,1.69381 -6.29049,1.89191 -4.10919,0.16589 -5.80404,-1.1417 -15.73943,-6.34543 -5.7883,-3.03167 -9.83408,-4.17259 -13.95747,-4.92169 l -4.88497,2.75394 6.39755,4.12843 -7.07141,1.39475 6.95048,4.55321 -8.21138,0.85421 5.76657,5.46323 c 0,0 -8.43287,0.40493 -8.40793,0.37412 4.26081,1.99203 9.20397,3.72241 14.54847,4.27874 2.33248,0.24279 9.85424,0.16507 12.50724,-0.12919 14.54236,-1.61297 23.33122,-7.06499 24.11429,-14.06419 0.12303,-1.09968 -0.0261,-2.74589 -0.30283,-3.59668 -1.15136,-3.54173 -5.48266,-7.73211 -10.17457,-9.525 -4.55446,-1.74035 -16.42948,0.60636 -16.78864,0.66663 2.08429,-0.95677 4.44489,-1.41896 5.6131,-2.9962 -0.0259,-0.0895 -0.45671,-0.76002 -0.59428,-1.2268 -2.41756,-1.23187 -7.61586,-4.58266 -7.5334,-9.85521 0.0639,-4.08442 1.92661,-8.23314 5.55625,-10.21953 7.07979,-3.87457 7.55197,3.8083 14.95005,2.33063 0.0236,-0.0231 0.047,-0.046 0.0703,-0.0682 0.31848,-1.11858 0.3419,-1.54172 0.26765,-2.5115 -3.53311,-5.51767 -4.52153,-10.11687 -11.04495,-10.80931 l 0.46698,-1.88029 c 0.3117,-1.34607 0.78061,-3.31161 0.78461,-3.43895 0.0112,-0.35947 -1.40966,-0.18522 -2.32495,0.27215 -1.18251,0.71757 -3.2956,1.89595 -3.05435,2.87215 l 1.71773,2.54455 -7.88944,-0.38138 c 0,0 0.97289,-7.70241 0.8909,-7.63519 -1.62643,1.33334 -4.41358,1.88568 -6.93498,9.60717 z"
       sodipodi:nodetypes="ccsscssccccccccssscscccssccccccscccsc"
       inkscape:export-filename="fox.png"
       inkscape:export-xdpi="96"
       inkscape:export-ydpi="96" /><path
       id="path4"
       style="fill:#000000;fill-opacity:1;stroke:none;stroke-width:0.3;stroke-miterlimit:0"
       d="m 366.1409,150.13567 c -6.68842,0.65482 -11.69272,4.95803 -15.01355,12.9093 -13.6092,10.1512 -17.83291,22.67277 -19.17661,35.92132 -4.29754,1.42142 -8.33028,4.12133 -12.25455,7.34322 8.20517,17.60064 24.61567,21.84259 38.5868,21.84259 25.21762,0 36.48252,-8.82376 36.48252,-18.05419 0,-6.08194 -5.41868,-16.22326 -20.67315,-15.94942 -1.5293,-3.05008 -1.26628,-5.41905 -1.30948,-7.90442 6.98382,0 16.69717,-7.12228 16.69717,-12.11399 0,-0.80828 -1.00331,-1.77882 -2.65255,-2.17816 -6.47368,-1.5675 -7.67199,-10.28519 -12.50157,-10.77764 l 1.40354,-7.10964 c -4.30304,-0.63922 -7.73345,0.59282 -10.29033,3.69538 z m -4.23126,5.10047 -0.8909,7.63519 7.88944,0.38138 -1.71773,-2.54455 c 1.5536,-1.45153 3.03695,-3.20698 4.96301,-3.05408 l -1.2392,5.44721 c 5.7641,0.0617 6.99314,8.56461 11.10061,10.58592 -1.14524,1.5482 -0.48767,2.69368 1.97249,3.43597 -4.93977,6.2873 -13.00781,5.99978 -14.05289,5.9092 -2.08484,3.65649 -2.28243,7.69452 -0.59221,12.1145 l -5.51594,3.15537 c 0,0 1.80301,-0.26398 3.15536,-0.42478 3.91444,-0.46544 9.82429,-0.9168 13.18731,0.16846 4.52485,1.46019 11.06662,5.86558 11.00811,11.7166 -0.11612,11.61133 -19.58515,14.88798 -31.30351,14.88798 -24.08918,0 -33.3562,-14.58717 -34.29352,-17.43305 4.74348,-3.63776 10.36407,-6.47431 19.21433,-6.3624 14.68773,0.63081 24.39036,11.73671 33.51475,11.70678 2.07825,-0.007 3.8802,0.11159 7.26881,-2.09961 -14.19935,-0.61835 -22.65164,-11.59728 -35.29242,-12.92996 -7.90869,-0.83379 -8.09046,-0.68045 -13.63483,-0.2403 1.33735,-11.5148 6.80151,-24.37172 18.32395,-32.44866 1.05231,-2.84634 1.68299,-5.57333 6.93498,-9.60717 z" /><path
       style="fill:#000000;fill-opacity:1;stroke:none;stroke-width:0.3;stroke-miterlimit:0"
       d="m 367.26616,169.16766 c 3.30767,0.69507 4.45425,3.25481 7.58974,2.45759 -0.63633,-0.80427 -1.41872,-1.85195 -1.85443,-3.14344 -3.98543,-0.64531 -4.84291,0.1339 -5.73531,0.68585 z"
       id="path5"
       sodipodi:nodetypes="cccc" /><ellipse
       style="fill:#ffffff;fill-opacity:1;stroke:none;stroke-width:0.3;stroke-miterlimit:0"
       id="path9"
       cx="319.7536"
       cy="275.53705"
       rx="1.0315734"
       ry="0.66985279"
       transform="rotate(-16.436765)" /></g></svg>
