<?xml version="1.0" encoding="UTF-8" standalone="no"?>
<!-- Created with Inkscape (http://www.inkscape.org/) -->

<svg
   width="48.572258mm"
   height="54.171024mm"
   viewBox="0 0 48.572258 54.171024"
   version="1.1"
   id="svg1"
   xml:space="preserve"
   xmlns="http://www.w3.org/2000/svg"
   xmlns:svg="http://www.w3.org/2000/svg"><defs
     id="defs1" /><g
     id="layer1"
     transform="translate(-29.073339,-80.952925)"><path
       style="fill:#262626;stroke:#000000;stroke-width:0.3;stroke-dasharray:none"
       d="m 48.097176,117.24967 v -1.68958 l -1.54476,-1.52968 c -1.95933,-1.94023 -2.93577,-3.39489 -4.23671,-6.3117 l -0.46002,-1.03142 -0.66111,-9.9e-4 c -0.90048,-0.002 -1.83862,-0.53624 -2.28878,-1.30438 -0.26147,-0.44616 -0.3635,-0.87507 -0.51319,-2.15731 -0.10276,-0.88024 -0.15068,-1.79472 -0.10647,-2.03219 0.18153,-0.97521 0.81444,-1.771048 1.6994,-2.136858 0.2326,-0.0962 2.08144,-1.71619 4.10851,-3.60007 2.02708,-1.883892 3.75484,-3.451826 3.83947,-3.484303 0.0846,-0.03247 1.33715,1.048604 2.78337,2.402401 l 2.62949,2.461452 2.69026,-2.513668 2.69027,-2.513664 3.71651,3.449762 c 2.68213,2.4896 3.89882,3.536 4.37152,3.75962 0.80345,0.38009 1.35904,1.026998 1.60572,1.869608 0.16513,0.56409 0.16544,0.81935 0.003,2.21045 -0.11818,1.00989 -0.27209,1.74359 -0.43007,2.05019 -0.5198,1.00874 -1.57057,1.66517 -2.66555,1.66517 -0.43909,0 -0.50547,0.0419 -0.62933,0.39722 -0.30116,0.86389 -1.48046,3.10309 -2.227,4.22851 -0.48292,0.72801 -1.3122,1.71188 -2.14265,2.54209 l -1.35481,1.35441 v 1.73983 c 0,0.95691 0.0224,1.73984 0.0497,1.73984 0.0273,0 0.39468,-0.17118 0.81635,-0.38039 1.26346,-0.62687 3.93471,-1.66857 6.26011,-2.44123 1.20331,-0.39983 2.21478,-0.74779 2.24769,-0.77323 0.0329,-0.0254 -0.133,-0.42251 -0.36872,-0.88238 -0.53342,-1.04068 -1.93328,-2.48289 -2.87055,-2.95742 -0.48758,-0.24685 -0.62859,-0.37116 -0.50009,-0.4409 0.94753,-0.51423 4.96571,-1.7207 7.53107,-2.26123 l 1.35117,-0.28468 -0.077,-0.50893 c -0.0423,-0.27991 -0.24571,-1.11626 -0.45194,-1.85855 -0.58722,-2.11366 -1.4346,-3.96915 -2.82747,-6.191228 -0.44469,-0.70943 -0.78887,-1.30472 -0.76485,-1.32287 0.0241,-0.0182 1.81585,0.34804 3.98182,0.81376 2.16597,0.46572 4.00345,0.850038 4.08331,0.854038 0.1852,0.009 -0.0719,-1.171688 -0.54267,-2.493118 -1.60247,-4.49769 -6.07727,-8.611712 -11.75405,-10.806392 -0.91349,-0.353163 -1.04686,-0.437555 -0.78759,-0.49838 0.17167,-0.04027 1.85842,-0.301868 3.74835,-0.581319 1.88994,-0.27945 3.45227,-0.524111 3.47184,-0.54369 0.0851,-0.08511 -1.9214,-1.874604 -2.56001,-2.283116 -2.27806,-1.457261 -5.14352,-2.097926 -8.04143,-1.797919 -2.24892,0.232819 -4.62902,0.920724 -6.85425,1.981042 l -0.79638,0.379138 -1.01672,-0.491865 c -0.55919,-0.270526 -1.69182,-0.710211 -2.51695,-0.977077 -5.49926,-1.778584 -10.25938,-0.995442 -13.74709,2.261687 -0.52333,0.488739 -0.93548,0.902374 -0.91588,0.919187 0.0196,0.01681 1.63903,0.266586 3.59871,0.555053 1.95969,0.288466 3.64746,0.553057 3.7506,0.587978 0.10669,0.03613 -0.24358,0.239373 -0.81263,0.471522 -3.30307,1.347527 -5.83716,2.970987 -8.0127,5.133314 -1.50894,1.499785 -2.43103,2.710466 -3.1439,4.127897 -0.45551,0.90572 -1.11407,2.7978 -1.2316,3.53847 -0.0825,0.519668 -0.0752,0.535628 0.21297,0.468368 1.01384,-0.236618 7.92458,-1.673098 7.94601,-1.651678 0.0144,0.0144 -0.28513,0.503 -0.66556,1.08584 -0.97072,1.487228 -2.30222,4.225708 -2.7746,5.706478 -0.33283,1.04334 -0.80867,3.07379 -0.72934,3.11221 0.0123,0.006 0.50059,0.10793 1.08506,0.2266 1.88361,0.38245 5.27769,1.33318 6.59479,1.84732 0.7048,0.27511 1.28146,0.51994 1.28146,0.54406 0,0.0242 -0.30532,0.21854 -0.67849,0.43205 -0.97418,0.55737 -1.85612,1.39504 -2.41135,2.29032 -0.6711,1.08214 -0.82602,1.459 -0.62874,1.5295 0.0855,0.0306 1.08378,0.3711 2.21834,0.75672 2.49558,0.84823 4.83971,1.76564 6.18848,2.42193 0.55009,0.26767 1.04235,0.49145 1.09392,0.4973 0.0516,0.006 0.0938,-0.74967 0.0938,-1.67893 z m 3.98929,-4.25622 c 0.38402,-0.17581 0.8206,-0.43462 0.97018,-0.57514 l 0.27196,-0.2555 0.57092,0.3928 c 1.12458,0.77373 2.45413,1.01477 3.90112,0.70726 1.80561,-0.38373 3.79083,-1.32474 2.79474,-1.32474 -0.40331,0 -1.70952,-0.58791 -2.9802,-1.34137 -1.0336,-0.61286 -1.26859,-0.70117 -2.00032,-0.75166 -0.74455,-0.0514 -0.90319,-0.0179 -1.55511,0.32737 l -0.72598,0.38457 -0.47241,-0.31262 c -0.58183,-0.38505 -1.39621,-0.53954 -2.13588,-0.40521 -0.3111,0.0565 -1.07435,0.40877 -1.71838,0.79309 -1.19454,0.71285 -2.58047,1.30372 -3.06938,1.3086 -0.27832,0.003 -0.27831,0.003 0.0277,0.23805 0.44945,0.34542 1.82583,0.88504 2.75688,1.08084 1.14419,0.24064 2.48945,0.13413 3.36419,-0.26634 z m -0.87823,-4.92357 c 0.77244,-0.39407 1.19801,-0.99446 1.6353,-2.30705 0.21958,-0.65909 0.44674,-1.2277 0.50482,-1.2636 0.10276,-0.0635 0.36271,0.55299 0.81034,1.92181 0.26756,0.81819 0.93767,1.5264 1.6447,1.73824 0.3346,0.10025 1.41484,0.15232 3.1225,0.15053 2.35573,-0.003 2.66589,-0.0276 3.1735,-0.25742 0.75551,-0.34199 1.22216,-0.80133 1.57733,-1.55263 0.28471,-0.60222 0.29557,-0.73373 0.29674,-3.59431 l 9.9e-4,-2.969228 h -10.62645 -10.62668 l 0.003,2.969228 c 0.002,2.71628 0.0244,3.01714 0.25741,3.5318 0.34199,0.75552 0.80133,1.22217 1.55263,1.57735 0.59862,0.28299 0.74311,0.29556 3.41177,0.29673 2.51321,9.8e-4 2.83335,-0.0226 3.26235,-0.24145 z m -6.20928,-1.21545 c -0.22566,-0.11122 -0.53508,-0.37717 -0.68761,-0.59099 -0.26023,-0.36482 -0.27969,-0.54094 -0.31586,-2.85792 l -0.0386,-2.46914 h 9.38378 9.38377 l -4.7e-4,2.40663 c -5.2e-4,2.68751 -0.0722,2.96233 -0.90478,3.46998 -0.37159,0.22657 -0.63304,0.24843 -2.97036,0.24843 -3.20453,0 -3.18811,0.007 -3.69172,-1.52043 -0.62192,-1.88598 -0.90954,-2.22923 -1.86796,-2.22923 -0.72175,0 -1.11655,0.46225 -1.57783,1.84743 -0.28414,0.85325 -0.5144,1.31803 -0.77252,1.55936 l -0.36773,0.3438 -2.58093,-0.003 c -2.12095,-0.002 -2.65407,-0.0389 -2.99124,-0.20507 z"
       id="path3" /><path
       style="fill:#262626;stroke:#000000;stroke-width:0.3;stroke-dasharray:none"
       d="m 58.596568,134.54334 c 0.11735,-0.0677 -0.43115,-1.02805 -0.43115,-1.17836 0,-0.0977 1.60798,-2.40482 3.57329,-5.12694 1.96531,-2.72213 3.5997,-5.01815 3.632,-5.10235 -1.69821,-1.43433 -3.65533,-2.6029 -5.51752,-3.83124 l -3.21433,15.63984 c 1.46915,-0.2167 1.82552,-0.32465 1.95771,-0.40095 z"
       id="path9" /><path
       style="fill:#262626;stroke:#000000;stroke-width:0.3;stroke-dasharray:none"
       d="m 47.972368,134.42646 c -0.11735,-0.0677 0.43115,-1.02805 0.43115,-1.17836 0,-0.0977 -1.60798,-2.40482 -3.57329,-5.12694 -1.96531,-2.72213 -3.5997,-5.01815 -3.632,-5.10235 1.69821,-1.43433 3.65533,-2.6029 5.51752,-3.83124 l 3.21433,15.63984 c -1.46915,-0.2167 -1.82552,-0.32465 -1.95771,-0.40095 z"
       id="path10" /></g></svg>
